<?xml version="1.0" encoding="UTF-8"?>
<!-- La ruta del polen. Ilustración del proyecto de Brezzo, Ledesma, Morales y Quiroz (Ética, Universidad Blas Pascal). -->
<svg xmlns="http://www.w3.org/2000/svg" viewBox="0 0 200 240" width="400" height="480" role="img" aria-labelledby="titulo">
  <title id="titulo">Patito (Aristolochia fimbriata), en maceta</title>
  <desc>Planta rastrera de hojas acorazonadas con nervaduras plateadas y una flor insólita, con forma de patito. Es el único alimento de las orugas de la Bordes de oro.</desc>
  <path d="M58,206 L142,206 L134,240 L66,240 Z" fill="#c8683c"/><path d="M100,206 L142,206 L134,240 L100,240 Z" fill="#b1562e"/><rect x="52" y="198" width="96" height="12" rx="4" fill="#d97b4c"/><ellipse cx="100" cy="199" rx="44" ry="4" fill="#5a3a24"/><g transform="translate(0 -15)"><path d="M100,214 Q64,196 22,196" fill="none" stroke="#2c5e33" stroke-width="2.4" stroke-linecap="round"/><path d="M70.2,202.5 L68.0,194.8" stroke="#2c5e33" stroke-width="1.5" stroke-linecap="round"/><g transform="translate(68.0 194.8) rotate(-106.3)"><g transform="translate(0 0) rotate(0)"><path d="M3.3,0 C-5.5,-17.4 15.2,-14.5 27.6,0 C15.2,14.5 -5.5,17.4 3.3,0 Z" fill="#5f9a52"/><path d="M3.3,0 L27.6,0 C15.2,14.5 -5.5,17.4 3.3,0 Z" fill="#3f7a3c"/></g><path d="M3.8640000000000008,0 L24.840000000000003,0" stroke="#dcebd0" stroke-width="1" stroke-linecap="round"/><path d="M4.416,0 C8.28,-7.176000000000001 14.352000000000002,-8.28 18.768,-4.968" fill="none" stroke="#dcebd0" stroke-width="0.8" stroke-linecap="round"/><path d="M4.416,0 C8.28,7.176000000000001 14.352000000000002,8.28 18.768,4.968" fill="none" stroke="#dcebd0" stroke-width="0.8" stroke-linecap="round"/></g><path d="M46.7,197.6 L43.4,190.3" stroke="#2c5e33" stroke-width="1.5" stroke-linecap="round"/><g transform="translate(43.4 190.3) rotate(-114.3)"><g transform="translate(0 0) rotate(0)"><path d="M3.1,0 C-5.2,-16.3 14.2,-13.5 25.8,0 C14.2,13.5 -5.2,16.3 3.1,0 Z" fill="#5f9a52"/><path d="M3.1,0 L25.8,0 C14.2,13.5 -5.2,16.3 3.1,0 Z" fill="#3f7a3c"/></g><path d="M3.6120000000000005,0 L23.220000000000002,0" stroke="#dcebd0" stroke-width="1" stroke-linecap="round"/><path d="M4.128,0 C7.74,-6.708 13.416,-7.74 17.544,-4.644" fill="none" stroke="#dcebd0" stroke-width="0.8" stroke-linecap="round"/><path d="M4.128,0 C7.74,6.708 13.416,7.74 17.544,4.644" fill="none" stroke="#dcebd0" stroke-width="0.8" stroke-linecap="round"/></g><path d="M22.0,196.0 L17.8,189.2" stroke="#2c5e33" stroke-width="1.5" stroke-linecap="round"/><g transform="translate(17.8 189.2) rotate(238.0)"><g transform="translate(0 0) rotate(0)"><path d="M2.9,0 C-4.8,-15.1 13.2,-12.6 24,0 C13.2,12.6 -4.8,15.1 2.9,0 Z" fill="#5f9a52"/><path d="M2.9,0 L24,0 C13.2,12.6 -4.8,15.1 2.9,0 Z" fill="#3f7a3c"/></g><path d="M3.3600000000000003,0 L21.6,0" stroke="#dcebd0" stroke-width="1" stroke-linecap="round"/><path d="M3.84,0 C7.199999999999999,-6.24 12.48,-7.199999999999999 16.32,-4.32" fill="none" stroke="#dcebd0" stroke-width="0.8" stroke-linecap="round"/><path d="M3.84,0 C7.199999999999999,6.24 12.48,7.199999999999999 16.32,4.32" fill="none" stroke="#dcebd0" stroke-width="0.8" stroke-linecap="round"/></g><path d="M100,214 Q140,194 180,190" fill="none" stroke="#2c5e33" stroke-width="2.4" stroke-linecap="round"/><path d="M132.0,200.6 L133.8,192.8" stroke="#2c5e33" stroke-width="1.5" stroke-linecap="round"/><g transform="translate(133.8 192.8) rotate(-76.8)"><g transform="translate(0 0) rotate(0)"><path d="M3.3,0 C-5.5,-17.4 15.2,-14.5 27.6,0 C15.2,14.5 -5.5,17.4 3.3,0 Z" fill="#5f9a52"/><path d="M3.3,0 L27.6,0 C15.2,14.5 -5.5,17.4 3.3,0 Z" fill="#3f7a3c"/></g><path d="M3.8640000000000008,0 L24.840000000000003,0" stroke="#dcebd0" stroke-width="1" stroke-linecap="round"/><path d="M4.416,0 C8.28,-7.176000000000001 14.352000000000002,-8.28 18.768,-4.968" fill="none" stroke="#dcebd0" stroke-width="0.8" stroke-linecap="round"/><path d="M4.416,0 C8.28,7.176000000000001 14.352000000000002,8.28 18.768,4.968" fill="none" stroke="#dcebd0" stroke-width="0.8" stroke-linecap="round"/></g><path d="M156.0,193.8 L158.7,186.3" stroke="#2c5e33" stroke-width="1.5" stroke-linecap="round"/><g transform="translate(158.7 186.3) rotate(-70.4)"><g transform="translate(0 0) rotate(0)"><path d="M3.1,0 C-5.2,-16.3 14.2,-13.5 25.8,0 C14.2,13.5 -5.2,16.3 3.1,0 Z" fill="#5f9a52"/><path d="M3.1,0 L25.8,0 C14.2,13.5 -5.2,16.3 3.1,0 Z" fill="#3f7a3c"/></g><path d="M3.6120000000000005,0 L23.220000000000002,0" stroke="#dcebd0" stroke-width="1" stroke-linecap="round"/><path d="M4.128,0 C7.74,-6.708 13.416,-7.74 17.544,-4.644" fill="none" stroke="#dcebd0" stroke-width="0.8" stroke-linecap="round"/><path d="M4.128,0 C7.74,6.708 13.416,7.74 17.544,4.644" fill="none" stroke="#dcebd0" stroke-width="0.8" stroke-linecap="round"/></g><path d="M180.0,190.0 L183.5,182.8" stroke="#2c5e33" stroke-width="1.5" stroke-linecap="round"/><g transform="translate(183.5 182.8) rotate(-63.7)"><g transform="translate(0 0) rotate(0)"><path d="M2.9,0 C-4.8,-15.1 13.2,-12.6 24,0 C13.2,12.6 -4.8,15.1 2.9,0 Z" fill="#5f9a52"/><path d="M2.9,0 L24,0 C13.2,12.6 -4.8,15.1 2.9,0 Z" fill="#3f7a3c"/></g><path d="M3.3600000000000003,0 L21.6,0" stroke="#dcebd0" stroke-width="1" stroke-linecap="round"/><path d="M3.84,0 C7.199999999999999,-6.24 12.48,-7.199999999999999 16.32,-4.32" fill="none" stroke="#dcebd0" stroke-width="0.8" stroke-linecap="round"/><path d="M3.84,0 C7.199999999999999,6.24 12.48,7.199999999999999 16.32,4.32" fill="none" stroke="#dcebd0" stroke-width="0.8" stroke-linecap="round"/></g><path d="M100,214 Q76,172 48,138" fill="none" stroke="#2c5e33" stroke-width="2.4" stroke-linecap="round"/><path d="M80.2,181.7 L83.5,174.4" stroke="#2c5e33" stroke-width="1.5" stroke-linecap="round"/><g transform="translate(83.5 174.4) rotate(-65.4)"><g transform="translate(0 0) rotate(0)"><path d="M3.1,0 C-5.1,-16.1 14.1,-13.4 25.6,0 C14.1,13.4 -5.1,16.1 3.1,0 Z" fill="#5f9a52"/><path d="M3.1,0 L25.6,0 C14.1,13.4 -5.1,16.1 3.1,0 Z" fill="#3f7a3c"/></g><path d="M3.5840000000000005,0 L23.040000000000003,0" stroke="#dcebd0" stroke-width="1" stroke-linecap="round"/><path d="M4.096,0 C7.68,-6.656000000000001 13.312000000000001,-7.68 17.408,-4.608" fill="none" stroke="#dcebd0" stroke-width="0.8" stroke-linecap="round"/><path d="M4.096,0 C7.68,6.656000000000001 13.312000000000001,7.68 17.408,4.608" fill="none" stroke="#dcebd0" stroke-width="0.8" stroke-linecap="round"/></g><path d="M64.4,159.1 L56.5,159.7" stroke="#2c5e33" stroke-width="1.5" stroke-linecap="round"/><g transform="translate(56.5 159.7) rotate(-184.4)"><g transform="translate(0 0) rotate(0)"><path d="M2.9,0 C-4.8,-15 13.1,-12.5 23.8,0 C13.1,12.5 -4.8,15 2.9,0 Z" fill="#5f9a52"/><path d="M2.9,0 L23.8,0 C13.1,12.5 -4.8,15 2.9,0 Z" fill="#3f7a3c"/></g><path d="M3.3320000000000003,0 L21.42,0" stroke="#dcebd0" stroke-width="1" stroke-linecap="round"/><path d="M3.8080000000000003,0 C7.14,-6.188000000000001 12.376000000000001,-7.14 16.184,-4.284" fill="none" stroke="#dcebd0" stroke-width="0.8" stroke-linecap="round"/><path d="M3.8080000000000003,0 C7.14,6.188000000000001 12.376000000000001,7.14 16.184,4.284" fill="none" stroke="#dcebd0" stroke-width="0.8" stroke-linecap="round"/></g><path d="M48.0,138.0 L50.5,130.4" stroke="#2c5e33" stroke-width="1.5" stroke-linecap="round"/><g transform="translate(50.5 130.4) rotate(-71.5)"><g transform="translate(0 0) rotate(0)"><path d="M2.6,0 C-4.4,-13.9 12.1,-11.5 22,0 C12.1,11.6 -4.4,13.9 2.6,0 Z" fill="#5f9a52"/><path d="M2.6,0 L22,0 C12.1,11.6 -4.4,13.9 2.6,0 Z" fill="#3f7a3c"/></g><path d="M3.08,0 L19.8,0" stroke="#dcebd0" stroke-width="1" stroke-linecap="round"/><path d="M3.52,0 C6.6,-5.720000000000001 11.440000000000001,-6.6 14.96,-3.96" fill="none" stroke="#dcebd0" stroke-width="0.8" stroke-linecap="round"/><path d="M3.52,0 C6.6,5.720000000000001 11.440000000000001,6.6 14.96,3.96" fill="none" stroke="#dcebd0" stroke-width="0.8" stroke-linecap="round"/></g><path d="M100,214 Q126,170 154,132" fill="none" stroke="#2c5e33" stroke-width="2.4" stroke-linecap="round"/><path d="M121.1,179.8 L117.7,172.5" stroke="#2c5e33" stroke-width="1.5" stroke-linecap="round"/><g transform="translate(117.7 172.5) rotate(-115.2)"><g transform="translate(0 0) rotate(0)"><path d="M3.1,0 C-5.1,-16.1 14.1,-13.4 25.6,0 C14.1,13.4 -5.1,16.1 3.1,0 Z" fill="#5f9a52"/><path d="M3.1,0 L25.6,0 C14.1,13.4 -5.1,16.1 3.1,0 Z" fill="#3f7a3c"/></g><path d="M3.5840000000000005,0 L23.040000000000003,0" stroke="#dcebd0" stroke-width="1" stroke-linecap="round"/><path d="M4.096,0 C7.68,-6.656000000000001 13.312000000000001,-7.68 17.408,-4.608" fill="none" stroke="#dcebd0" stroke-width="0.8" stroke-linecap="round"/><path d="M4.096,0 C7.68,6.656000000000001 13.312000000000001,7.68 17.408,4.608" fill="none" stroke="#dcebd0" stroke-width="0.8" stroke-linecap="round"/></g><path d="M137.4,155.3 L145.4,155.7" stroke="#2c5e33" stroke-width="1.5" stroke-linecap="round"/><g transform="translate(145.4 155.7) rotate(2.5)"><g transform="translate(0 0) rotate(0)"><path d="M2.9,0 C-4.8,-15 13.1,-12.5 23.8,0 C13.1,12.5 -4.8,15 2.9,0 Z" fill="#5f9a52"/><path d="M2.9,0 L23.8,0 C13.1,12.5 -4.8,15 2.9,0 Z" fill="#3f7a3c"/></g><path d="M3.3320000000000003,0 L21.42,0" stroke="#dcebd0" stroke-width="1" stroke-linecap="round"/><path d="M3.8080000000000003,0 C7.14,-6.188000000000001 12.376000000000001,-7.14 16.184,-4.284" fill="none" stroke="#dcebd0" stroke-width="0.8" stroke-linecap="round"/><path d="M3.8080000000000003,0 C7.14,6.188000000000001 12.376000000000001,7.14 16.184,4.284" fill="none" stroke="#dcebd0" stroke-width="0.8" stroke-linecap="round"/></g><path d="M154.0,132.0 L151.1,124.6" stroke="#2c5e33" stroke-width="1.5" stroke-linecap="round"/><g transform="translate(151.1 124.6) rotate(-111.6)"><g transform="translate(0 0) rotate(0)"><path d="M2.6,0 C-4.4,-13.9 12.1,-11.5 22,0 C12.1,11.6 -4.4,13.9 2.6,0 Z" fill="#5f9a52"/><path d="M2.6,0 L22,0 C12.1,11.6 -4.4,13.9 2.6,0 Z" fill="#3f7a3c"/></g><path d="M3.08,0 L19.8,0" stroke="#dcebd0" stroke-width="1" stroke-linecap="round"/><path d="M3.52,0 C6.6,-5.720000000000001 11.440000000000001,-6.6 14.96,-3.96" fill="none" stroke="#dcebd0" stroke-width="0.8" stroke-linecap="round"/><path d="M3.52,0 C6.6,5.720000000000001 11.440000000000001,6.6 14.96,3.96" fill="none" stroke="#dcebd0" stroke-width="0.8" stroke-linecap="round"/></g><path d="M100,214 Q96,164 102,118" fill="none" stroke="#2c5e33" stroke-width="2.4" stroke-linecap="round"/><path d="M98.4,174.6 L91.6,170.4" stroke="#2c5e33" stroke-width="1.5" stroke-linecap="round"/><g transform="translate(91.6 170.4) rotate(-148.0)"><g transform="translate(0 0) rotate(0)"><path d="M3.1,0 C-5.1,-16.1 14.1,-13.4 25.6,0 C14.1,13.4 -5.1,16.1 3.1,0 Z" fill="#5f9a52"/><path d="M3.1,0 L25.6,0 C14.1,13.4 -5.1,16.1 3.1,0 Z" fill="#3f7a3c"/></g><path d="M3.5840000000000005,0 L23.040000000000003,0" stroke="#dcebd0" stroke-width="1" stroke-linecap="round"/><path d="M4.096,0 C7.68,-6.656000000000001 13.312000000000001,-7.68 17.408,-4.608" fill="none" stroke="#dcebd0" stroke-width="0.8" stroke-linecap="round"/><path d="M4.096,0 C7.68,6.656000000000001 13.312000000000001,7.68 17.408,4.608" fill="none" stroke="#dcebd0" stroke-width="0.8" stroke-linecap="round"/></g><path d="M99.3,146.0 L106.3,142.2" stroke="#2c5e33" stroke-width="1.5" stroke-linecap="round"/><g transform="translate(106.3 142.2) rotate(-28.4)"><g transform="translate(0 0) rotate(0)"><path d="M2.9,0 C-4.8,-15 13.1,-12.5 23.8,0 C13.1,12.5 -4.8,15 2.9,0 Z" fill="#5f9a52"/><path d="M2.9,0 L23.8,0 C13.1,12.5 -4.8,15 2.9,0 Z" fill="#3f7a3c"/></g><path d="M3.3320000000000003,0 L21.42,0" stroke="#dcebd0" stroke-width="1" stroke-linecap="round"/><path d="M3.8080000000000003,0 C7.14,-6.188000000000001 12.376000000000001,-7.14 16.184,-4.284" fill="none" stroke="#dcebd0" stroke-width="0.8" stroke-linecap="round"/><path d="M3.8080000000000003,0 C7.14,6.188000000000001 12.376000000000001,7.14 16.184,4.284" fill="none" stroke="#dcebd0" stroke-width="0.8" stroke-linecap="round"/></g><path d="M102.0,118.0 L95.8,112.9" stroke="#2c5e33" stroke-width="1.5" stroke-linecap="round"/><g transform="translate(95.8 112.9) rotate(-140.6)"><g transform="translate(0 0) rotate(0)"><path d="M2.6,0 C-4.4,-13.9 12.1,-11.5 22,0 C12.1,11.6 -4.4,13.9 2.6,0 Z" fill="#5f9a52"/><path d="M2.6,0 L22,0 C12.1,11.6 -4.4,13.9 2.6,0 Z" fill="#3f7a3c"/></g><path d="M3.08,0 L19.8,0" stroke="#dcebd0" stroke-width="1" stroke-linecap="round"/><path d="M3.52,0 C6.6,-5.720000000000001 11.440000000000001,-6.6 14.96,-3.96" fill="none" stroke="#dcebd0" stroke-width="0.8" stroke-linecap="round"/><path d="M3.52,0 C6.6,5.720000000000001 11.440000000000001,6.6 14.96,3.96" fill="none" stroke="#dcebd0" stroke-width="0.8" stroke-linecap="round"/></g><path d="M80.2,181.7 Q81.3,174.2 75.2,169.7" fill="none" stroke="#2c5e33" stroke-width="1.7" stroke-linecap="round"/><g transform="translate(75.2 169.7) scale(-1 1)"><path d="M1,-11 C2,-20 9,-21 12,-29" fill="none" stroke="#cdc57a" stroke-width="4.6" stroke-linecap="round"/><ellipse cx="0" cy="-6" rx="5.6" ry="7" fill="#ddd79a"/><path d="M0,-13 A5.6,7 0 0 1 0,1 Z" fill="#c4bd74"/><path d="M-2.5,-11 C-3.5,-7 -3.5,-4 -2,-1 M2.5,-11 C3.5,-7 3.5,-4 2,-1" fill="none" stroke="#8a6a3a" stroke-width="0.7"/><path d="M24.5,-38.0 L30.0,-38.0" stroke="#5a2616" stroke-width="1.1" stroke-linecap="round"/><circle cx="30.0" cy="-38.0" r="1.1" fill="#5a2616"/><path d="M24.0,-34.8 L29.2,-33.1" stroke="#5a2616" stroke-width="1.1" stroke-linecap="round"/><circle cx="29.2" cy="-33.1" r="1.1" fill="#5a2616"/><path d="M22.5,-31.8 L26.9,-28.6" stroke="#5a2616" stroke-width="1.1" stroke-linecap="round"/><circle cx="26.9" cy="-28.6" r="1.1" fill="#5a2616"/><path d="M20.2,-29.5 L23.4,-25.1" stroke="#5a2616" stroke-width="1.1" stroke-linecap="round"/><circle cx="23.4" cy="-25.1" r="1.1" fill="#5a2616"/><path d="M17.2,-28.0 L18.9,-22.8" stroke="#5a2616" stroke-width="1.1" stroke-linecap="round"/><circle cx="18.9" cy="-22.8" r="1.1" fill="#5a2616"/><path d="M14.0,-27.5 L14.0,-22.0" stroke="#5a2616" stroke-width="1.1" stroke-linecap="round"/><circle cx="14.0" cy="-22.0" r="1.1" fill="#5a2616"/><path d="M10.8,-28.0 L9.1,-22.8" stroke="#5a2616" stroke-width="1.1" stroke-linecap="round"/><circle cx="9.1" cy="-22.8" r="1.1" fill="#5a2616"/><path d="M7.8,-29.5 L4.6,-25.1" stroke="#5a2616" stroke-width="1.1" stroke-linecap="round"/><circle cx="4.6" cy="-25.1" r="1.1" fill="#5a2616"/><path d="M5.5,-31.8 L1.1,-28.6" stroke="#5a2616" stroke-width="1.1" stroke-linecap="round"/><circle cx="1.1" cy="-28.6" r="1.1" fill="#5a2616"/><path d="M4.0,-34.8 L-1.2,-33.1" stroke="#5a2616" stroke-width="1.1" stroke-linecap="round"/><circle cx="-1.2" cy="-33.1" r="1.1" fill="#5a2616"/><path d="M3.5,-38.0 L-2.0,-38.0" stroke="#5a2616" stroke-width="1.1" stroke-linecap="round"/><circle cx="-2.0" cy="-38.0" r="1.1" fill="#5a2616"/><path d="M4.0,-41.2 L-1.2,-42.9" stroke="#5a2616" stroke-width="1.1" stroke-linecap="round"/><circle cx="-1.2" cy="-42.9" r="1.1" fill="#5a2616"/><path d="M5.5,-44.2 L1.1,-47.4" stroke="#5a2616" stroke-width="1.1" stroke-linecap="round"/><circle cx="1.1" cy="-47.4" r="1.1" fill="#5a2616"/><path d="M7.8,-46.5 L4.6,-50.9" stroke="#5a2616" stroke-width="1.1" stroke-linecap="round"/><circle cx="4.6" cy="-50.9" r="1.1" fill="#5a2616"/><path d="M10.8,-48.0 L9.1,-53.2" stroke="#5a2616" stroke-width="1.1" stroke-linecap="round"/><circle cx="9.1" cy="-53.2" r="1.1" fill="#5a2616"/><path d="M14.0,-48.5 L14.0,-54.0" stroke="#5a2616" stroke-width="1.1" stroke-linecap="round"/><circle cx="14.0" cy="-54.0" r="1.1" fill="#5a2616"/><path d="M17.2,-48.0 L18.9,-53.2" stroke="#5a2616" stroke-width="1.1" stroke-linecap="round"/><circle cx="18.9" cy="-53.2" r="1.1" fill="#5a2616"/><path d="M20.2,-46.5 L23.4,-50.9" stroke="#5a2616" stroke-width="1.1" stroke-linecap="round"/><circle cx="23.4" cy="-50.9" r="1.1" fill="#5a2616"/><path d="M22.5,-44.2 L26.9,-47.4" stroke="#5a2616" stroke-width="1.1" stroke-linecap="round"/><circle cx="26.9" cy="-47.4" r="1.1" fill="#5a2616"/><path d="M24.0,-41.2 L29.2,-42.9" stroke="#5a2616" stroke-width="1.1" stroke-linecap="round"/><circle cx="29.2" cy="-42.9" r="1.1" fill="#5a2616"/><circle cx="14" cy="-38" r="10.5" fill="#6e2f1e"/><circle cx="14" cy="-38" r="5.6" fill="#e5d58a"/><circle cx="12" cy="-40" r="0.9" fill="#6e2f1e"/><circle cx="16" cy="-36" r="0.9" fill="#6e2f1e"/><circle cx="11" cy="-35" r="0.9" fill="#6e2f1e"/><circle cx="17" cy="-41" r="0.9" fill="#6e2f1e"/><circle cx="14" cy="-43" r="0.9" fill="#6e2f1e"/><circle cx="14" cy="-38" r="1.9" fill="#2a120a"/></g><path d="M121.1,179.8 Q120,172.3 126.1,167.8" fill="none" stroke="#2c5e33" stroke-width="1.7" stroke-linecap="round"/><g transform="translate(126.1 167.8) scale(1 1)"><path d="M1,-11 C2,-20 9,-21 12,-29" fill="none" stroke="#cdc57a" stroke-width="4.6" stroke-linecap="round"/><ellipse cx="0" cy="-6" rx="5.6" ry="7" fill="#ddd79a"/><path d="M0,-13 A5.6,7 0 0 1 0,1 Z" fill="#c4bd74"/><path d="M-2.5,-11 C-3.5,-7 -3.5,-4 -2,-1 M2.5,-11 C3.5,-7 3.5,-4 2,-1" fill="none" stroke="#8a6a3a" stroke-width="0.7"/><path d="M24.5,-38.0 L30.0,-38.0" stroke="#5a2616" stroke-width="1.1" stroke-linecap="round"/><circle cx="30.0" cy="-38.0" r="1.1" fill="#5a2616"/><path d="M24.0,-34.8 L29.2,-33.1" stroke="#5a2616" stroke-width="1.1" stroke-linecap="round"/><circle cx="29.2" cy="-33.1" r="1.1" fill="#5a2616"/><path d="M22.5,-31.8 L26.9,-28.6" stroke="#5a2616" stroke-width="1.1" stroke-linecap="round"/><circle cx="26.9" cy="-28.6" r="1.1" fill="#5a2616"/><path d="M20.2,-29.5 L23.4,-25.1" stroke="#5a2616" stroke-width="1.1" stroke-linecap="round"/><circle cx="23.4" cy="-25.1" r="1.1" fill="#5a2616"/><path d="M17.2,-28.0 L18.9,-22.8" stroke="#5a2616" stroke-width="1.1" stroke-linecap="round"/><circle cx="18.9" cy="-22.8" r="1.1" fill="#5a2616"/><path d="M14.0,-27.5 L14.0,-22.0" stroke="#5a2616" stroke-width="1.1" stroke-linecap="round"/><circle cx="14.0" cy="-22.0" r="1.1" fill="#5a2616"/><path d="M10.8,-28.0 L9.1,-22.8" stroke="#5a2616" stroke-width="1.1" stroke-linecap="round"/><circle cx="9.1" cy="-22.8" r="1.1" fill="#5a2616"/><path d="M7.8,-29.5 L4.6,-25.1" stroke="#5a2616" stroke-width="1.1" stroke-linecap="round"/><circle cx="4.6" cy="-25.1" r="1.1" fill="#5a2616"/><path d="M5.5,-31.8 L1.1,-28.6" stroke="#5a2616" stroke-width="1.1" stroke-linecap="round"/><circle cx="1.1" cy="-28.6" r="1.1" fill="#5a2616"/><path d="M4.0,-34.8 L-1.2,-33.1" stroke="#5a2616" stroke-width="1.1" stroke-linecap="round"/><circle cx="-1.2" cy="-33.1" r="1.1" fill="#5a2616"/><path d="M3.5,-38.0 L-2.0,-38.0" stroke="#5a2616" stroke-width="1.1" stroke-linecap="round"/><circle cx="-2.0" cy="-38.0" r="1.1" fill="#5a2616"/><path d="M4.0,-41.2 L-1.2,-42.9" stroke="#5a2616" stroke-width="1.1" stroke-linecap="round"/><circle cx="-1.2" cy="-42.9" r="1.1" fill="#5a2616"/><path d="M5.5,-44.2 L1.1,-47.4" stroke="#5a2616" stroke-width="1.1" stroke-linecap="round"/><circle cx="1.1" cy="-47.4" r="1.1" fill="#5a2616"/><path d="M7.8,-46.5 L4.6,-50.9" stroke="#5a2616" stroke-width="1.1" stroke-linecap="round"/><circle cx="4.6" cy="-50.9" r="1.1" fill="#5a2616"/><path d="M10.8,-48.0 L9.1,-53.2" stroke="#5a2616" stroke-width="1.1" stroke-linecap="round"/><circle cx="9.1" cy="-53.2" r="1.1" fill="#5a2616"/><path d="M14.0,-48.5 L14.0,-54.0" stroke="#5a2616" stroke-width="1.1" stroke-linecap="round"/><circle cx="14.0" cy="-54.0" r="1.1" fill="#5a2616"/><path d="M17.2,-48.0 L18.9,-53.2" stroke="#5a2616" stroke-width="1.1" stroke-linecap="round"/><circle cx="18.9" cy="-53.2" r="1.1" fill="#5a2616"/><path d="M20.2,-46.5 L23.4,-50.9" stroke="#5a2616" stroke-width="1.1" stroke-linecap="round"/><circle cx="23.4" cy="-50.9" r="1.1" fill="#5a2616"/><path d="M22.5,-44.2 L26.9,-47.4" stroke="#5a2616" stroke-width="1.1" stroke-linecap="round"/><circle cx="26.9" cy="-47.4" r="1.1" fill="#5a2616"/><path d="M24.0,-41.2 L29.2,-42.9" stroke="#5a2616" stroke-width="1.1" stroke-linecap="round"/><circle cx="29.2" cy="-42.9" r="1.1" fill="#5a2616"/><circle cx="14" cy="-38" r="10.5" fill="#6e2f1e"/><circle cx="14" cy="-38" r="5.6" fill="#e5d58a"/><circle cx="12" cy="-40" r="0.9" fill="#6e2f1e"/><circle cx="16" cy="-36" r="0.9" fill="#6e2f1e"/><circle cx="11" cy="-35" r="0.9" fill="#6e2f1e"/><circle cx="17" cy="-41" r="0.9" fill="#6e2f1e"/><circle cx="14" cy="-43" r="0.9" fill="#6e2f1e"/><circle cx="14" cy="-38" r="1.9" fill="#2a120a"/></g></g>
</svg>
