<?xml version="1.0" encoding="UTF-8"?>
<!-- La ruta del polen. Ilustración del proyecto de Brezzo, Ledesma, Morales y Quiroz (Ética, Universidad Blas Pascal). -->
<svg xmlns="http://www.w3.org/2000/svg" viewBox="0 0 200 240" width="400" height="480" role="img" aria-labelledby="titulo">
  <title id="titulo">Verbena (Verbena bonariensis), en maceta</title>
  <desc>Tallos altos, finos y casi sin hojas, coronados de flores lilas que parecen flotar. Famosa en jardines de todo el mundo, y es nuestra.</desc>
  <path d="M58,206 L142,206 L134,240 L66,240 Z" fill="#c8683c"/><path d="M100,206 L142,206 L134,240 L100,240 Z" fill="#b1562e"/><rect x="52" y="198" width="96" height="12" rx="4" fill="#d97b4c"/><ellipse cx="100" cy="199" rx="44" ry="4" fill="#5a3a24"/><g transform="translate(0 -15)"><path d="M95,214 Q83.5,100 34,76.5" fill="none" stroke="#2c5e33" stroke-width="1.8" stroke-linecap="round"/><g transform="translate(91.7 187.9) rotate(-150.9)"><path d="M0,0 C8.7,-2.7 18.7,-2.3 24.907999999999998,0 C18.7,2.3 8.7,2.7 0,0 Z" fill="#4f8a3c"/><path d="M0,0 L24.907999999999998,0 C18.7,2.3 8.7,2.7 0,0 Z" fill="#2c5e33"/></g><g transform="translate(84.2 152) rotate(-53.2)"><path d="M0,0 C8.1,-2.5 17.4,-2.1 23.179,0 C17.4,2.1 8.1,2.5 0,0 Z" fill="#4f8a3c"/><path d="M0,0 L23.179,0 C17.4,2.1 8.1,2.5 0,0 Z" fill="#2c5e33"/></g><g transform="translate(74 122.6) rotate(-165.9)"><path d="M0,0 C7.5,-2.3 16.1,-2 21.45,0 C16.1,2 7.5,2.3 0,0 Z" fill="#4f8a3c"/><path d="M0,0 L21.45,0 C16.1,2 7.5,2.3 0,0 Z" fill="#2c5e33"/></g><path d="M34,76.5 Q28.8,69.2 20,67.5" fill="none" stroke="#2c5e33" stroke-width="1.5" stroke-linecap="round"/><path d="M34,76.5 Q39.6,70.2 48,69.5" fill="none" stroke="#2c5e33" stroke-width="1.5" stroke-linecap="round"/><path d="M34,76.5 Q34.5,68 35,59.5" fill="none" stroke="#2c5e33" stroke-width="1.5" stroke-linecap="round"/><g transform="translate(20 67.5) rotate(0)"><circle cx="-2.8" cy="-4.2" r="2.4" fill="#a57bd6"/><circle cx="-1.5" cy="4.2" r="2.4" fill="#a57bd6"/><circle cx="4.3" cy="-2.2" r="2.4" fill="#a57bd6"/><circle cx="-4.5" cy="-0.6" r="2.4" fill="#a57bd6"/><circle cx="2.4" cy="2.5" r="2.4" fill="#c9a8ea"/><circle cx="0.3" cy="-2.5" r="2.4" fill="#c9a8ea"/><circle cx="-1.7" cy="1.2" r="2.4" fill="#c9a8ea"/><circle cx="0" cy="0" r="2.4" fill="#c9a8ea"/></g><g transform="translate(48 69.5) rotate(0)"><circle cx="-2.8" cy="-4.2" r="2.4" fill="#a57bd6"/><circle cx="-1.5" cy="4.2" r="2.4" fill="#a57bd6"/><circle cx="4.3" cy="-2.2" r="2.4" fill="#a57bd6"/><circle cx="-4.5" cy="-0.6" r="2.4" fill="#a57bd6"/><circle cx="2.4" cy="2.5" r="2.4" fill="#c9a8ea"/><circle cx="0.3" cy="-2.5" r="2.4" fill="#c9a8ea"/><circle cx="-1.7" cy="1.2" r="2.4" fill="#c9a8ea"/><circle cx="0" cy="0" r="2.4" fill="#c9a8ea"/></g><g transform="translate(35 59.5) rotate(0)"><circle cx="3.2" cy="-5.4" r="2.4" fill="#a57bd6"/><circle cx="-6.7" cy="2.2" r="2.4" fill="#a57bd6"/><circle cx="6.4" cy="1.8" r="2.4" fill="#a57bd6"/><circle cx="-2.9" cy="-4.4" r="2.4" fill="#a57bd6"/><circle cx="-1.5" cy="4.5" r="2.4" fill="#a57bd6"/><circle cx="4.6" cy="-2.3" r="2.4" fill="#a57bd6"/><circle cx="-4.8" cy="-0.7" r="2.4" fill="#c9a8ea"/><circle cx="2.5" cy="2.6" r="2.4" fill="#c9a8ea"/><circle cx="0.3" cy="-2.7" r="2.4" fill="#c9a8ea"/><circle cx="-1.8" cy="1.3" r="2.4" fill="#c9a8ea"/><circle cx="0" cy="0" r="2.4" fill="#c9a8ea"/></g><path d="M97,214 Q90.1,100 60.4,59.5" fill="none" stroke="#2c5e33" stroke-width="1.8" stroke-linecap="round"/><g transform="translate(95 187.7) rotate(-147.2)"><path d="M0,0 C8.7,-2.7 18.7,-2.3 24.907999999999998,0 C18.7,2.3 8.7,2.7 0,0 Z" fill="#4f8a3c"/><path d="M0,0 L24.907999999999998,0 C18.7,2.3 8.7,2.7 0,0 Z" fill="#2c5e33"/></g><g transform="translate(90.5 150.4) rotate(-46.7)"><path d="M0,0 C8.1,-2.5 17.4,-2.1 23.179,0 C17.4,2.1 8.1,2.5 0,0 Z" fill="#4f8a3c"/><path d="M0,0 L23.179,0 C17.4,2.1 8.1,2.5 0,0 Z" fill="#2c5e33"/></g><g transform="translate(84.4 118.4) rotate(-155.3)"><path d="M0,0 C7.5,-2.3 16.1,-2 21.45,0 C16.1,2 7.5,2.3 0,0 Z" fill="#4f8a3c"/><path d="M0,0 L21.45,0 C16.1,2 7.5,2.3 0,0 Z" fill="#2c5e33"/></g><path d="M60.4,59.5 Q55.2,52.2 46.4,50.5" fill="none" stroke="#2c5e33" stroke-width="1.5" stroke-linecap="round"/><path d="M60.4,59.5 Q66,53.2 74.4,52.5" fill="none" stroke="#2c5e33" stroke-width="1.5" stroke-linecap="round"/><path d="M60.4,59.5 Q60.9,51 61.4,42.5" fill="none" stroke="#2c5e33" stroke-width="1.5" stroke-linecap="round"/><g transform="translate(46.4 50.5) rotate(0)"><circle cx="-2.8" cy="-4.2" r="2.4" fill="#a57bd6"/><circle cx="-1.5" cy="4.2" r="2.4" fill="#a57bd6"/><circle cx="4.3" cy="-2.2" r="2.4" fill="#a57bd6"/><circle cx="-4.5" cy="-0.6" r="2.4" fill="#a57bd6"/><circle cx="2.4" cy="2.5" r="2.4" fill="#c9a8ea"/><circle cx="0.3" cy="-2.5" r="2.4" fill="#c9a8ea"/><circle cx="-1.7" cy="1.2" r="2.4" fill="#c9a8ea"/><circle cx="0" cy="0" r="2.4" fill="#c9a8ea"/></g><g transform="translate(74.4 52.5) rotate(0)"><circle cx="-2.8" cy="-4.2" r="2.4" fill="#a57bd6"/><circle cx="-1.5" cy="4.2" r="2.4" fill="#a57bd6"/><circle cx="4.3" cy="-2.2" r="2.4" fill="#a57bd6"/><circle cx="-4.5" cy="-0.6" r="2.4" fill="#a57bd6"/><circle cx="2.4" cy="2.5" r="2.4" fill="#c9a8ea"/><circle cx="0.3" cy="-2.5" r="2.4" fill="#c9a8ea"/><circle cx="-1.7" cy="1.2" r="2.4" fill="#c9a8ea"/><circle cx="0" cy="0" r="2.4" fill="#c9a8ea"/></g><g transform="translate(61.4 42.5) rotate(0)"><circle cx="3.6" cy="-6.1" r="2.4" fill="#a57bd6"/><circle cx="-7.5" cy="2.4" r="2.4" fill="#a57bd6"/><circle cx="7.2" cy="2.1" r="2.4" fill="#a57bd6"/><circle cx="-3.3" cy="-5" r="2.4" fill="#a57bd6"/><circle cx="-1.7" cy="5" r="2.4" fill="#a57bd6"/><circle cx="5.1" cy="-2.5" r="2.4" fill="#a57bd6"/><circle cx="-5.3" cy="-0.7" r="2.4" fill="#c9a8ea"/><circle cx="2.9" cy="2.9" r="2.4" fill="#c9a8ea"/><circle cx="0.3" cy="-3" r="2.4" fill="#c9a8ea"/><circle cx="-2" cy="1.4" r="2.4" fill="#c9a8ea"/><circle cx="0" cy="0" r="2.4" fill="#c9a8ea"/></g><path d="M103,214 Q109.9,100 139.6,64.1" fill="none" stroke="#2c5e33" stroke-width="1.8" stroke-linecap="round"/><g transform="translate(105 187.8) rotate(-136.7)"><path d="M0,0 C8.7,-2.7 18.7,-2.3 24.907999999999998,0 C18.7,2.3 8.7,2.7 0,0 Z" fill="#4f8a3c"/><path d="M0,0 L24.907999999999998,0 C18.7,2.3 8.7,2.7 0,0 Z" fill="#2c5e33"/></g><g transform="translate(109.5 150.8) rotate(-29.2)"><path d="M0,0 C8.1,-2.5 17.4,-2.1 23.179,0 C17.4,2.1 8.1,2.5 0,0 Z" fill="#4f8a3c"/><path d="M0,0 L23.179,0 C17.4,2.1 8.1,2.5 0,0 Z" fill="#2c5e33"/></g><g transform="translate(115.6 119.5) rotate(-128.3)"><path d="M0,0 C7.5,-2.3 16.1,-2 21.45,0 C16.1,2 7.5,2.3 0,0 Z" fill="#4f8a3c"/><path d="M0,0 L21.45,0 C16.1,2 7.5,2.3 0,0 Z" fill="#2c5e33"/></g><path d="M139.6,64.1 Q134.4,56.8 125.6,55.1" fill="none" stroke="#2c5e33" stroke-width="1.5" stroke-linecap="round"/><path d="M139.6,64.1 Q145.2,57.8 153.6,57.1" fill="none" stroke="#2c5e33" stroke-width="1.5" stroke-linecap="round"/><path d="M139.6,64.1 Q140.1,55.6 140.6,47.1" fill="none" stroke="#2c5e33" stroke-width="1.5" stroke-linecap="round"/><g transform="translate(125.6 55.1) rotate(0)"><circle cx="-2.8" cy="-4.2" r="2.4" fill="#a57bd6"/><circle cx="-1.5" cy="4.2" r="2.4" fill="#a57bd6"/><circle cx="4.3" cy="-2.2" r="2.4" fill="#a57bd6"/><circle cx="-4.5" cy="-0.6" r="2.4" fill="#a57bd6"/><circle cx="2.4" cy="2.5" r="2.4" fill="#c9a8ea"/><circle cx="0.3" cy="-2.5" r="2.4" fill="#c9a8ea"/><circle cx="-1.7" cy="1.2" r="2.4" fill="#c9a8ea"/><circle cx="0" cy="0" r="2.4" fill="#c9a8ea"/></g><g transform="translate(153.6 57.1) rotate(0)"><circle cx="-2.8" cy="-4.2" r="2.4" fill="#a57bd6"/><circle cx="-1.5" cy="4.2" r="2.4" fill="#a57bd6"/><circle cx="4.3" cy="-2.2" r="2.4" fill="#a57bd6"/><circle cx="-4.5" cy="-0.6" r="2.4" fill="#a57bd6"/><circle cx="2.4" cy="2.5" r="2.4" fill="#c9a8ea"/><circle cx="0.3" cy="-2.5" r="2.4" fill="#c9a8ea"/><circle cx="-1.7" cy="1.2" r="2.4" fill="#c9a8ea"/><circle cx="0" cy="0" r="2.4" fill="#c9a8ea"/></g><g transform="translate(140.6 47.1) rotate(0)"><circle cx="3.2" cy="-5.4" r="2.4" fill="#a57bd6"/><circle cx="-6.7" cy="2.2" r="2.4" fill="#a57bd6"/><circle cx="6.4" cy="1.8" r="2.4" fill="#a57bd6"/><circle cx="-2.9" cy="-4.4" r="2.4" fill="#a57bd6"/><circle cx="-1.5" cy="4.5" r="2.4" fill="#a57bd6"/><circle cx="4.6" cy="-2.3" r="2.4" fill="#a57bd6"/><circle cx="-4.8" cy="-0.7" r="2.4" fill="#c9a8ea"/><circle cx="2.5" cy="2.6" r="2.4" fill="#c9a8ea"/><circle cx="0.3" cy="-2.7" r="2.4" fill="#c9a8ea"/><circle cx="-1.8" cy="1.3" r="2.4" fill="#c9a8ea"/><circle cx="0" cy="0" r="2.4" fill="#c9a8ea"/></g><path d="M105,214 Q116.5,100 166,69.5" fill="none" stroke="#2c5e33" stroke-width="1.8" stroke-linecap="round"/><g transform="translate(108.3 187.8) rotate(-133.2)"><path d="M0,0 C8.7,-2.7 18.7,-2.3 24.907999999999998,0 C18.7,2.3 8.7,2.7 0,0 Z" fill="#4f8a3c"/><path d="M0,0 L24.907999999999998,0 C18.7,2.3 8.7,2.7 0,0 Z" fill="#2c5e33"/></g><g transform="translate(115.8 151.3) rotate(-23.2)"><path d="M0,0 C8.1,-2.5 17.4,-2.1 23.179,0 C17.4,2.1 8.1,2.5 0,0 Z" fill="#4f8a3c"/><path d="M0,0 L23.179,0 C17.4,2.1 8.1,2.5 0,0 Z" fill="#2c5e33"/></g><g transform="translate(126 120.9) rotate(-119.1)"><path d="M0,0 C7.5,-2.3 16.1,-2 21.45,0 C16.1,2 7.5,2.3 0,0 Z" fill="#4f8a3c"/><path d="M0,0 L21.45,0 C16.1,2 7.5,2.3 0,0 Z" fill="#2c5e33"/></g><path d="M166,69.5 Q160.8,62.2 152,60.5" fill="none" stroke="#2c5e33" stroke-width="1.5" stroke-linecap="round"/><path d="M166,69.5 Q171.6,63.2 180,62.5" fill="none" stroke="#2c5e33" stroke-width="1.5" stroke-linecap="round"/><path d="M166,69.5 Q166.5,61 167,52.5" fill="none" stroke="#2c5e33" stroke-width="1.5" stroke-linecap="round"/><g transform="translate(152 60.5) rotate(0)"><circle cx="-2.8" cy="-4.2" r="2.4" fill="#a57bd6"/><circle cx="-1.5" cy="4.2" r="2.4" fill="#a57bd6"/><circle cx="4.3" cy="-2.2" r="2.4" fill="#a57bd6"/><circle cx="-4.5" cy="-0.6" r="2.4" fill="#a57bd6"/><circle cx="2.4" cy="2.5" r="2.4" fill="#c9a8ea"/><circle cx="0.3" cy="-2.5" r="2.4" fill="#c9a8ea"/><circle cx="-1.7" cy="1.2" r="2.4" fill="#c9a8ea"/><circle cx="0" cy="0" r="2.4" fill="#c9a8ea"/></g><g transform="translate(180 62.5) rotate(0)"><circle cx="-2.8" cy="-4.2" r="2.4" fill="#a57bd6"/><circle cx="-1.5" cy="4.2" r="2.4" fill="#a57bd6"/><circle cx="4.3" cy="-2.2" r="2.4" fill="#a57bd6"/><circle cx="-4.5" cy="-0.6" r="2.4" fill="#a57bd6"/><circle cx="2.4" cy="2.5" r="2.4" fill="#c9a8ea"/><circle cx="0.3" cy="-2.5" r="2.4" fill="#c9a8ea"/><circle cx="-1.7" cy="1.2" r="2.4" fill="#c9a8ea"/><circle cx="0" cy="0" r="2.4" fill="#c9a8ea"/></g><g transform="translate(167 52.5) rotate(0)"><circle cx="3.6" cy="-6.1" r="2.4" fill="#a57bd6"/><circle cx="-7.5" cy="2.4" r="2.4" fill="#a57bd6"/><circle cx="7.2" cy="2.1" r="2.4" fill="#a57bd6"/><circle cx="-3.3" cy="-5" r="2.4" fill="#a57bd6"/><circle cx="-1.7" cy="5" r="2.4" fill="#a57bd6"/><circle cx="5.1" cy="-2.5" r="2.4" fill="#a57bd6"/><circle cx="-5.3" cy="-0.7" r="2.4" fill="#c9a8ea"/><circle cx="2.9" cy="2.9" r="2.4" fill="#c9a8ea"/><circle cx="0.3" cy="-3" r="2.4" fill="#c9a8ea"/><circle cx="-2" cy="1.4" r="2.4" fill="#c9a8ea"/><circle cx="0" cy="0" r="2.4" fill="#c9a8ea"/></g><path d="M99,214 Q96.7,100 86.8,40.7" fill="none" stroke="#2c5e33" stroke-width="1.8" stroke-linecap="round"/><g transform="translate(98.3 187.4) rotate(-143.7)"><path d="M0,0 C8.7,-2.7 18.7,-2.3 24.907999999999998,0 C18.7,2.3 8.7,2.7 0,0 Z" fill="#4f8a3c"/><path d="M0,0 L24.907999999999998,0 C18.7,2.3 8.7,2.7 0,0 Z" fill="#2c5e33"/></g><g transform="translate(96.8 148.6) rotate(-40.7)"><path d="M0,0 C8.1,-2.5 17.4,-2.1 23.179,0 C17.4,2.1 8.1,2.5 0,0 Z" fill="#4f8a3c"/><path d="M0,0 L23.179,0 C17.4,2.1 8.1,2.5 0,0 Z" fill="#2c5e33"/></g><g transform="translate(94.8 113.7) rotate(-146)"><path d="M0,0 C7.5,-2.3 16.1,-2 21.45,0 C16.1,2 7.5,2.3 0,0 Z" fill="#4f8a3c"/><path d="M0,0 L21.45,0 C16.1,2 7.5,2.3 0,0 Z" fill="#2c5e33"/></g><path d="M86.8,40.7 Q81.6,33.4 72.8,31.7" fill="none" stroke="#2c5e33" stroke-width="1.5" stroke-linecap="round"/><path d="M86.8,40.7 Q92.4,34.4 100.8,33.7" fill="none" stroke="#2c5e33" stroke-width="1.5" stroke-linecap="round"/><path d="M86.8,40.7 Q87.3,32.2 87.8,23.7" fill="none" stroke="#2c5e33" stroke-width="1.5" stroke-linecap="round"/><g transform="translate(72.8 31.7) rotate(0)"><circle cx="-2.8" cy="-4.2" r="2.4" fill="#a57bd6"/><circle cx="-1.5" cy="4.2" r="2.4" fill="#a57bd6"/><circle cx="4.3" cy="-2.2" r="2.4" fill="#a57bd6"/><circle cx="-4.5" cy="-0.6" r="2.4" fill="#a57bd6"/><circle cx="2.4" cy="2.5" r="2.4" fill="#c9a8ea"/><circle cx="0.3" cy="-2.5" r="2.4" fill="#c9a8ea"/><circle cx="-1.7" cy="1.2" r="2.4" fill="#c9a8ea"/><circle cx="0" cy="0" r="2.4" fill="#c9a8ea"/></g><g transform="translate(100.8 33.7) rotate(0)"><circle cx="-2.8" cy="-4.2" r="2.4" fill="#a57bd6"/><circle cx="-1.5" cy="4.2" r="2.4" fill="#a57bd6"/><circle cx="4.3" cy="-2.2" r="2.4" fill="#a57bd6"/><circle cx="-4.5" cy="-0.6" r="2.4" fill="#a57bd6"/><circle cx="2.4" cy="2.5" r="2.4" fill="#c9a8ea"/><circle cx="0.3" cy="-2.5" r="2.4" fill="#c9a8ea"/><circle cx="-1.7" cy="1.2" r="2.4" fill="#c9a8ea"/><circle cx="0" cy="0" r="2.4" fill="#c9a8ea"/></g><g transform="translate(87.8 23.7) rotate(0)"><circle cx="3.2" cy="-5.4" r="2.4" fill="#a57bd6"/><circle cx="-6.7" cy="2.2" r="2.4" fill="#a57bd6"/><circle cx="6.4" cy="1.8" r="2.4" fill="#a57bd6"/><circle cx="-2.9" cy="-4.4" r="2.4" fill="#a57bd6"/><circle cx="-1.5" cy="4.5" r="2.4" fill="#a57bd6"/><circle cx="4.6" cy="-2.3" r="2.4" fill="#a57bd6"/><circle cx="-4.8" cy="-0.7" r="2.4" fill="#c9a8ea"/><circle cx="2.5" cy="2.6" r="2.4" fill="#c9a8ea"/><circle cx="0.3" cy="-2.7" r="2.4" fill="#c9a8ea"/><circle cx="-1.8" cy="1.3" r="2.4" fill="#c9a8ea"/><circle cx="0" cy="0" r="2.4" fill="#c9a8ea"/></g><path d="M101,214 Q103.3,100 113.2,33.6" fill="none" stroke="#2c5e33" stroke-width="1.8" stroke-linecap="round"/><g transform="translate(101.7 187.3) rotate(-140.3)"><path d="M0,0 C8.7,-2.7 18.7,-2.3 24.907999999999998,0 C18.7,2.3 8.7,2.7 0,0 Z" fill="#4f8a3c"/><path d="M0,0 L24.907999999999998,0 C18.7,2.3 8.7,2.7 0,0 Z" fill="#2c5e33"/></g><g transform="translate(103.2 147.9) rotate(-35.3)"><path d="M0,0 C8.1,-2.5 17.4,-2.1 23.179,0 C17.4,2.1 8.1,2.5 0,0 Z" fill="#4f8a3c"/><path d="M0,0 L23.179,0 C17.4,2.1 8.1,2.5 0,0 Z" fill="#2c5e33"/></g><g transform="translate(105.2 111.9) rotate(-138.1)"><path d="M0,0 C7.5,-2.3 16.1,-2 21.45,0 C16.1,2 7.5,2.3 0,0 Z" fill="#4f8a3c"/><path d="M0,0 L21.45,0 C16.1,2 7.5,2.3 0,0 Z" fill="#2c5e33"/></g><path d="M113.2,33.6 Q108,26.3 99.2,24.6" fill="none" stroke="#2c5e33" stroke-width="1.5" stroke-linecap="round"/><path d="M113.2,33.6 Q118.8,27.3 127.2,26.6" fill="none" stroke="#2c5e33" stroke-width="1.5" stroke-linecap="round"/><path d="M113.2,33.6 Q113.7,25.1 114.2,16.6" fill="none" stroke="#2c5e33" stroke-width="1.5" stroke-linecap="round"/><g transform="translate(99.2 24.6) rotate(0)"><circle cx="-2.8" cy="-4.2" r="2.4" fill="#a57bd6"/><circle cx="-1.5" cy="4.2" r="2.4" fill="#a57bd6"/><circle cx="4.3" cy="-2.2" r="2.4" fill="#a57bd6"/><circle cx="-4.5" cy="-0.6" r="2.4" fill="#a57bd6"/><circle cx="2.4" cy="2.5" r="2.4" fill="#c9a8ea"/><circle cx="0.3" cy="-2.5" r="2.4" fill="#c9a8ea"/><circle cx="-1.7" cy="1.2" r="2.4" fill="#c9a8ea"/><circle cx="0" cy="0" r="2.4" fill="#c9a8ea"/></g><g transform="translate(127.2 26.6) rotate(0)"><circle cx="-2.8" cy="-4.2" r="2.4" fill="#a57bd6"/><circle cx="-1.5" cy="4.2" r="2.4" fill="#a57bd6"/><circle cx="4.3" cy="-2.2" r="2.4" fill="#a57bd6"/><circle cx="-4.5" cy="-0.6" r="2.4" fill="#a57bd6"/><circle cx="2.4" cy="2.5" r="2.4" fill="#c9a8ea"/><circle cx="0.3" cy="-2.5" r="2.4" fill="#c9a8ea"/><circle cx="-1.7" cy="1.2" r="2.4" fill="#c9a8ea"/><circle cx="0" cy="0" r="2.4" fill="#c9a8ea"/></g><g transform="translate(114.2 16.6) rotate(0)"><circle cx="3.6" cy="-6.1" r="2.4" fill="#a57bd6"/><circle cx="-7.5" cy="2.4" r="2.4" fill="#a57bd6"/><circle cx="7.2" cy="2.1" r="2.4" fill="#a57bd6"/><circle cx="-3.3" cy="-5" r="2.4" fill="#a57bd6"/><circle cx="-1.7" cy="5" r="2.4" fill="#a57bd6"/><circle cx="5.1" cy="-2.5" r="2.4" fill="#a57bd6"/><circle cx="-5.3" cy="-0.7" r="2.4" fill="#c9a8ea"/><circle cx="2.9" cy="2.9" r="2.4" fill="#c9a8ea"/><circle cx="0.3" cy="-3" r="2.4" fill="#c9a8ea"/><circle cx="-2" cy="1.4" r="2.4" fill="#c9a8ea"/><circle cx="0" cy="0" r="2.4" fill="#c9a8ea"/></g></g>
</svg>
